<svg xmlns="http://www.w3.org/2000/svg" xmlns:xlink="http://www.w3.org/1999/xlink" id="Capa_1" x="0px" y="0px" viewBox="0 0 792 612" style="enable-background:new 0 0 792 612;" xml:space="preserve"> <style type="text/css"> .st0{fill:#FFFFFF;} .st1{fill:none;} </style> <g> <g> <path class="st0" d="M155.8,291c-11.2-9-26.5-14.1-44.4-14.8c-16.6-0.6-34.9,3.7-47.8,11.2c-12.1,6.9-15.6,19.5-9.3,32.9l2.1,4.8 l0.1,0.2c0.8,1.7,1.7,3.3,2.6,4.6c-12.4,8.8-20,22.2-20.6,38.5c-1.1,29.2,22,50.5,56,51.7c0.8,0,1.6,0,2.4,0 c9.6,0,19-2.1,27.7-6.1c3.3,2.5,8,4.7,14.6,4.9l8.9,0.3c14.8,0.6,25.4-9.4,26-24.1l2-55C177.2,313.9,165.7,298.9,155.8,291z M161.2,339.7l-2,55c-0.2,6.5-3.8,9.9-10.4,9.6l-8.9-0.3c-6.3-0.2-9.6-4.1-9.4-10.4l0-0.9c-9.4,7.9-21.8,12.9-35.3,12.4 c-25.9-0.9-42.3-15.5-41.5-36.1c0.8-22.4,19.8-36.5,48.1-35.4c8.5,0.3,16.9,2.6,24.6,5.5l0.1-3.9c0.4-10.2-6.6-16.6-19.2-17 c-10.6-0.4-19.2,2.6-24.6,5.4c-4.9,2.4-9.6,1.8-12.5-4.4l-2.2-5.1c-3.4-7.1-1.6-10.9,3.1-13.6c10.9-6.3,26.7-9.7,39.7-9.2 C137.2,292.3,162.4,304.7,161.2,339.7z"></path> <path class="st0" d="M89,368.4c-0.3,8,6.3,13.5,16.7,13.9c11.7,0.4,20.3-6.7,20.5-12.5l0.3-8.9c-4.1-2.1-11.6-5.2-19.4-5.5 C96.4,355,89.2,360.4,89,368.4z"></path> </g> <path class="st0" d="M229.3,241.6c-5.2-4.6-12-6.4-19.2-5.3l-17.5,2.8c-7,1-22.5,5.2-23.2,24l-4.8,131.7c-0.3,9,3.2,14.9,6.2,18.2 c3.1,3.4,8.7,7.5,17.9,7.8l17.8,0.7c0.4,0,0.7,0,1.1,0c14,0,24.4-10,24.9-24.2l5-135.2C237.7,253.9,234.7,246.4,229.3,241.6z M222.4,261.7l-5,135.2c-0.2,6.3-4.1,9.9-10.4,9.6l-17.8-0.7c-6.5-0.2-9.9-4.1-9.6-10.4l4.8-131.7c0.2-6.3,3.8-8.8,10.4-9.6 l17.7-2.8C219.1,250.2,222.6,255.1,222.4,261.7z"></path> <g> <path class="st1" d="M364.5,355.4c-0.2,6.3-1.8,11.5-4.5,15.4c6.6,19.5,24.3,33,46.7,33.8c11.1,0.4,21.2-2.5,29.4-7.6l-0.4,11.1 c-0.5,14.6-13.8,20.4-27.3,19.9c-13.7-0.5-25.2-7.5-31.1-13.3c-5.3-4.5-9.4-3.6-13.1,0l-6.3,6.9c-4.5,5.1-3.4,9.5-0.1,13.3 c10,10.8,26.1,19.5,49.1,20.3c34.6,1.3,61.9-15.8,63.3-52.7l3.2-86.1c0.2-6.3-3.3-10.1-9.6-10.4l-10-0.4 c-6.5-0.2-10.1,3.3-10.4,9.6l0,0.2c-8.6-7.7-19.8-12.7-32.8-13.2c-22.3-0.8-41,11.1-49.1,29.8 C363.8,339.6,364.8,347.4,364.5,355.4z M418.1,330.2c13.5,0.5,22.7,10.6,22.2,24.5c-0.5,13.5-10.4,23.1-23.9,22.6 c-13.3-0.5-22.5-10.8-21.9-24.5C394.9,339.1,404.8,329.7,418.1,330.2z"></path> <path class="st1" d="M416.9,362.3c5,0.2,8.1-2.9,8.3-8.1c0.1-2.8-0.6-5.1-2-6.6c-1.6-1.8-4-2.2-5.7-2.3c-0.1,0-0.3,0-0.4,0 c-1.6,0-3.7,0.4-5.3,1.9c-1.5,1.4-2.3,3.6-2.4,6.3C409.4,355.4,409.7,362,416.9,362.3z"></path> <path class="st1" d="M342.2,350.9c0.2-6.8,1.4-13.2,3.4-19.2c-2.5-6.2-6-11.9-10.5-16.8c-9-9.7-23.1-16.3-40.5-16.9 c-34.1-1.3-59.3,22-60.6,54.8c-1.2,33.9,23.3,58.3,58.1,59.6c17.2,0.6,37.2-4.3,47.3-14.4c2.7-2.7,4.6-6.4,0-11.1l-7.1-7.9 c-4-4.5-7.3-3.1-11.3-0.2c-8,5.1-15.7,7.3-23.5,7c-14.3-0.5-26.2-8.8-27.4-23.4l69.1,2.5c1.5,0.1,2.8,0,3.9-0.2 C342.3,360.3,342,355.6,342.2,350.9z M271,341.8c1.9-11.5,10.2-18.3,21.8-17.9c6.3,0.2,11.2,2.6,15,6.6c2.9,3.2,4.9,7.6,5.6,12.8 L271,341.8z"></path> <path class="st1" d="M359.8,399.3c-0.1-0.1-0.2-0.2-0.2-0.3c-0.9-1-1.8-2-2.7-3.1c-0.4,2.6-1.4,5.1-2.8,7.5 C355.9,401.7,357.8,400.3,359.8,399.3z"></path> <path class="st0" d="M292.8,323.9c-11.5-0.4-19.8,6.5-21.8,17.9l42.4,1.6c-0.7-5.2-2.7-9.7-5.6-12.8 C304,326.5,299.1,324.1,292.8,323.9z"></path> <path class="st0" d="M346.8,411.4l6.9-7.5c0.1-0.1,0.3-0.3,0.5-0.4c1.4-2.4,2.4-4.9,2.8-7.5c-7.3-8.9-12.1-19.6-13.9-31.2 c-1.1,0.2-2.4,0.2-3.9,0.2l-69.1-2.5c1.2,14.6,13.1,22.9,27.4,23.4c7.8,0.3,15.5-1.8,23.5-7c4-2.9,7.3-4.3,11.3,0.2l7.1,7.9 c4.6,4.7,2.7,8.4,0,11.1c-10.2,10.1-30.1,15-47.3,14.4c-34.8-1.3-59.3-25.7-58.1-59.6c1.2-32.8,26.4-56,60.6-54.8 c17.4,0.6,31.5,7.2,40.5,16.9c4.5,4.8,8,10.5,10.5,16.8c2-6.1,4.8-11.8,8.3-16.8c-2.3-3.6-4.9-7.1-7.8-10.2 c-12.3-13.3-30.4-21-51-21.7c-20.4-0.8-39.3,5.8-53.3,18.5c-14,12.7-22.1,30.8-22.8,50.8c-0.8,20.5,6.3,39.4,19.9,53.1 c13.2,13.5,32,21.3,52.7,22c1.3,0,2.6,0.1,3.8,0.1c23,0,40.8-7.7,50.9-15.6C346.5,411.8,346.6,411.6,346.8,411.4L346.8,411.4z"></path> <path class="st0" d="M464.3,290.9l-10-0.4c-6.7-0.2-11.7,1.6-15.1,3.9c-8.6-4.4-18.1-6.8-28-7.2c-24.2-0.9-45,9.9-57.3,27.7 c3.3,5.3,5.9,11.1,7.7,17.2c8.1-18.7,26.7-30.6,49.1-29.8c13,0.5,24.2,5.5,32.8,13.2l0-0.2c0.2-6.3,3.8-9.9,10.4-9.6l10,0.4 c6.3,0.2,9.9,4.1,9.6,10.4l-3.2,86.1c-1.4,36.9-28.7,54-63.3,52.7c-23-0.8-39-9.5-49.1-20.3c-3.3-3.8-4.5-8.2,0.1-13.3l6.3-6.9 c3.6-3.6,7.8-4.5,13.1,0c5.9,5.9,17.4,12.8,31.1,13.3c13.5,0.5,26.7-5.3,27.3-19.9l0.4-11.1c-8.2,5.1-18.4,8-29.4,7.6 c-22.3-0.8-40.1-14.3-46.7-33.8c-2.1,3.1-5,5.4-8.5,7c4.7,5.5,6.5,11.9,5.5,18.1c0.9,1,1.7,2.1,2.7,3.1c0.1,0.1,0.2,0.2,0.2,0.3 c-2,1.1-3.9,2.5-5.7,4.2c-1.1,1.8-2.4,3.5-4,5.2c-1.1,1.1-2.4,2.2-3.8,3.3c-8.6,10-8.6,22.8,0.2,32.8l0.3,0.3 c10.1,10.8,28.6,24,59.6,25.1c1.4,0.1,2.8,0.1,4.2,0.1c44,0,73.2-26.1,74.7-67.3l3.2-86.1v0C489,302.3,478.9,291.4,464.3,290.9z"></path> <path class="st0" d="M349.5,354.9c-0.2,6.2-1.6,9.2-6.5,9.9c1.9,11.6,6.6,22.3,13.9,31.2c1.1-6.2-0.7-12.6-5.5-18.1 c3.5-1.5,6.4-3.9,8.5-7c-2-6-3-12.5-2.7-19.4c0.3-7,1.8-13.5,4.3-19.4c-1.8-6.1-4.4-11.9-7.7-17.2c-3.5,5.1-6.3,10.7-8.3,16.8 C348.4,338.9,349.8,346.8,349.5,354.9z"></path> <path class="st0" d="M354.1,403.4c-0.2,0.1-0.3,0.3-0.5,0.4l-6.9,7.5l-0.1,0.1c-0.1,0.1-0.2,0.3-0.4,0.4c1.4-1.1,2.7-2.2,3.8-3.3 C351.7,407,353.1,405.3,354.1,403.4z"></path> <path class="st0" d="M416.4,377.4c13.5,0.5,23.4-9.2,23.9-22.6c0.5-13.9-8.7-24-22.2-24.5c-13.3-0.5-23.2,8.9-23.7,22.6 C393.9,366.5,403.1,376.9,416.4,377.4z"></path> </g> <g> <path class="st1" d="M675.5,426.5c13.5,0.5,25.8-4.5,35.3-12.4l0,0.9c-0.2,6.3,3.1,10.1,9.4,10.4l8.9,0.3 c6.5,0.2,10.1-3.1,10.4-9.6l2-55c1.3-35-23.9-47.4-50.2-48.4c-13-0.5-28.8,2.9-39.7,9.2c-4.7,2.7-6.5,6.5-3.1,13.6l2.2,5.1 c2.8,6.2,7.6,6.8,12.5,4.4c5.3-2.9,13.9-5.8,24.6-5.4c12.6,0.5,19.6,6.8,19.2,17l-0.1,3.9c-7.7-2.9-16.1-5.2-24.6-5.5 c-24.2-0.9-41.6,9.3-46.6,26.4l-0.7,17.9C638.3,415,653.5,425.7,675.5,426.5z M687.3,376.6c7.8,0.3,15.3,3.4,19.4,5.5l-0.3,8.9 c-0.2,5.9-8.7,13-20.5,12.5c-10.4-0.4-17-5.8-16.7-13.9C669.5,381.6,676.7,376.3,687.3,376.6z"></path> <path class="st1" d="M568.9,340.7c1-1,1.8-2.4,2.4-4.4l4.7-16.1c1.9-5.9-1.1-7.9-4.6-9.3c-1,2.5-1.7,5.5-1.8,9.1L568.9,340.7z"></path> <path class="st1" d="M590.4,324.4c1.6-5.3,1.4-9.7,0.5-13.2c-3.9,1.2-6,4.4-6.2,9.2l-0.9,24.8c0.7-1.3,1.3-2.7,1.8-4.3 L590.4,324.4z"></path> <path class="st1" d="M639.5,351.3c-0.9-1.3-1.8-2.9-2.6-4.6l-0.1-0.2l0-0.1l-0.3,7.3C637.4,352.8,638.4,352,639.5,351.3z"></path> <path class="st1" d="M612.9,311.5l-17.8-0.7c-1.6-0.1-3,0.1-4.2,0.5c0.9,3.4,1.2,7.8-0.5,13.2l-4.8,16.5c-0.5,1.6-1.1,3-1.8,4.3 l-2.4,65c-0.2,6.3,3.1,10.1,9.6,10.4l17.8,0.7c6.3,0.2,10.1-3.3,10.4-9.6l0.4-10.9c-0.6-3.5-0.9-7.1-0.8-10.9 c0.1-3.8,0.7-7.5,1.6-11l2.1-56.9C622.8,315.5,619.2,311.7,612.9,311.5z"></path> <path class="st1" d="M587.2,293.5l42.1-15c3.8-1.4,5.8-4.6,3.6-9.4l-7.1-14.4c-1.8-3.5-4.8-5-9.5-2.3l-38.8,20.8 c-5.1,2.6-6.5,6.1-4.1,10.5l3.9,7.8C578.9,294.5,582.6,295.1,587.2,293.5z"></path> <path class="st1" d="M555.4,307.6c-12-0.4-22.4,5.5-30.4,15.9l0.2-5.2c0.2-6.3-3.1-10.1-9.4-10.4l-11.5-0.4 c-6.3-0.2-9.9,3.3-10.1,9.6l-3.3,89.8c-0.2,6.3,3.1,10.1,9.4,10.4l18,0.7c6.3,0.2,9.9-3.3,10.1-9.6l1.8-48.5 c0.5-12.8,7.7-21,20.6-20.6c3.7,0.1,7.8,1.4,11.2,2.6c2.5,1.1,5,0.9,6.9-1.1l0.8-20.8c0.1-3.5,0.8-6.5,1.8-9.1 c-0.2-0.1-0.3-0.1-0.5-0.2C566.4,308.9,561.2,307.8,555.4,307.6z"></path> <path class="st0" d="M562,341.8c-3.4-1.2-7.5-2.5-11.2-2.6c-12.8-0.5-20.1,7.8-20.6,20.6l-1.8,48.5c-0.2,6.3-3.8,9.9-10.1,9.6 l-18-0.7c-6.3-0.2-9.6-4.1-9.4-10.4l3.3-89.8c0.2-6.3,3.8-9.9,10.1-9.6l11.5,0.4c6.3,0.2,9.6,4.1,9.4,10.4l-0.2,5.2 c8-10.4,18.4-16.3,30.4-15.9c5.9,0.2,11.1,1.3,15.6,3c0.2,0.1,0.3,0.1,0.5,0.2c0.5-1.3,1.1-2.4,1.7-3.5c-4.3-2.1-7.4-5.4-9.2-8.9 l-0.1-0.3l-2.6-5.2c-1.7-0.2-3.5-0.3-5.3-0.4c-8.6-0.3-16.8,1.6-24.4,5.7c-4-3.2-9.2-5.2-15.2-5.4l-11.5-0.4 c-9.2-0.3-15,3.4-18.3,6.6c-3.2,3.1-7.1,8.6-7.4,17.6l-3.3,89.8c-0.3,9,3.1,14.8,6.1,18.1c3.1,3.4,8.6,7.5,17.8,7.9l18,0.7 c0.4,0,0.8,0,1.1,0c14,0,24.1-9.8,24.6-24.2l1.8-48.5c0.2-6.2,2.3-6.2,4.9-6.1c0.9,0,2.7,0.3,6.3,1.6c3.9,1.6,7.9,2.1,11.8,1.4 l0.6-16.5C566.9,342.7,564.4,342.9,562,341.8z"></path> <path class="st0" d="M576.4,296.5c3.5,1.4,7.9,3.5,11.2,8c1.1,1.5,2.4,3.8,3.3,6.8c1.2-0.4,2.6-0.5,4.2-0.5l17.8,0.7 c6.3,0.2,9.9,4.1,9.6,10.4l-2.1,56.9c2.6-10,8.1-18.6,16-25.1l0.3-7.3l-2.1-4.7c-4.8-10.2-3.9-20,2.2-27.1 c-1.2-4.8-3.5-8.2-5.6-10.5c-2.2-2.3-5.5-5-10.4-6.5l13.6-4.9l0.2-0.1c6-2.2,10.5-6.4,12.8-11.9c2.3-5.5,2.1-11.9-0.7-17.9 l-7.3-14.8l-0.1-0.2c-3.6-7.1-9-9.9-12.8-11c-3.9-1.2-10.1-1.7-17.3,2.4l-38.6,20.7c-8,4.2-11.2,9.9-12.4,14 c-1.2,3.8-1.7,9.8,2,16.8l1.2,2.3c5.3,0.6,10.3,1.8,15,3.5L576.4,296.5z M577.5,273.2l38.8-20.8c4.7-2.7,7.7-1.2,9.5,2.3l7.1,14.4 c2.2,4.9,0.1,8.1-3.6,9.4l-42.1,15c-4.6,1.6-8.3,1-9.9-2.1l-3.9-7.8C571,279.2,572.4,275.8,577.5,273.2z"></path> <path class="st0" d="M619.2,411.6c-0.2,6.3-4.1,9.9-10.4,9.6l-17.8-0.7c-6.5-0.2-9.9-4.1-9.6-10.4l2.4-65 c-3.1,6.1-7.4,9.1-10.8,10.6c-1.5,0.7-3.1,1.1-4.7,1.4l-1.9,52.4c-0.3,9,3.2,14.9,6.2,18.2c3.1,3.4,8.7,7.5,17.9,7.8l17.8,0.7 c0.4,0,0.7,0,1.1,0c9.7,0,17.7-4.9,21.9-12.6c-6-6.4-10-14.2-11.6-23L619.2,411.6z"></path> <path class="st0" d="M583.8,345.2l0.9-24.8c0.2-4.8,2.3-8,6.2-9.2c-0.8-3-2.2-5.3-3.3-6.8c-3.3-4.5-7.7-6.6-11.2-8l-0.2-0.1 c-4.7-1.8-9.7-2.9-15-3.5l2.6,5.2l0.1,0.3c1.8,3.5,4.9,6.8,9.2,8.9c-0.6,1-1.2,2.2-1.7,3.5c3.4,1.4,6.5,3.4,4.6,9.3l-4.7,16.1 c-0.6,2-1.5,3.4-2.4,4.4l-0.6,16.5c1.6-0.3,3.2-0.7,4.7-1.4C576.4,354.3,580.7,351.3,583.8,345.2z"></path> <path class="st0" d="M685.9,403.6c11.7,0.4,20.3-6.7,20.5-12.5l0.3-8.9c-4.1-2.1-11.6-5.2-19.4-5.5c-10.6-0.4-17.8,5-18.1,13 C668.9,397.7,675.5,403.2,685.9,403.6z"></path> <path class="st0" d="M736.1,312.3c-11.2-9-26.5-14.1-44.4-14.8c-16.5-0.6-34.9,3.7-47.8,11.2c-2.9,1.6-5.2,3.6-7.1,5.8 c0.6,2.3,0.9,4.9,0.8,7.8l-0.9,24l0,0.1l0.1,0.2c0.8,1.7,1.7,3.3,2.6,4.6c-1.1,0.7-2.1,1.5-3,2.4l-1,27.6 c5-17,22.4-27.3,46.6-26.4c8.5,0.3,16.9,2.6,24.6,5.5l0.1-3.9c0.4-10.2-6.6-16.6-19.2-17c-10.6-0.4-19.2,2.6-24.6,5.4 c-4.9,2.4-9.6,1.8-12.5-4.4l-2.2-5.1c-3.4-7.1-1.6-10.9,3.1-13.6c10.9-6.3,26.7-9.7,39.7-9.2c26.3,1,51.5,13.4,50.2,48.4l-2,55 c-0.2,6.5-3.8,9.9-10.4,9.6l-8.9-0.3c-6.3-0.2-9.6-4.1-9.4-10.4l0-0.9c-9.4,7.9-21.8,12.9-35.3,12.4c-22-0.8-37.2-11.4-40.7-27.3 l-0.5,12.9c-0.2,4.3-1.2,8.2-3,11.6c9.9,10.6,25.2,17.2,43.7,17.9c0.8,0,1.6,0,2.4,0c9.6,0,19-2.1,27.7-6.1 c3.3,2.5,8,4.7,14.6,4.9l8.9,0.3c14.7,0.6,25.4-9.4,26-24.1l2-55C757.4,335.2,745.9,320.2,736.1,312.3z"></path> <path class="st0" d="M634.7,399.2c-0.6-2.8-0.9-5.7-0.8-8.8c0.1-3.2,0.6-6.2,1.5-9.1l1-27.6c-7.9,6.5-13.4,15-16,25.1l-0.8,21.9 c1.6,8.8,5.6,16.6,11.6,23c1.8-3.4,2.9-7.3,3-11.6L634.7,399.2z"></path> <path class="st0" d="M634.6,341.6l2.1,4.7l0.9-24c0.1-2.9-0.2-5.5-0.8-7.8C630.7,321.7,629.8,331.4,634.6,341.6z"></path> </g> <path class="st0" d="M36.4,194.6c-1.8-27.9,19.3-50.2,48.5-52.1c14-0.9,27,3.5,36.4,11.7c3.4,2.8,3.6,6.6,0.6,9.6l-7,6.7 c-3,3-6.1,3-9.6,0.5c-5.3-3.9-11.9-6.1-19-5.6c-14.5,0.9-25.1,12.5-24.1,27.6c1,15.1,13,25.2,27.4,24.2c7.1-0.5,13.4-3.5,18.1-8 c3.2-3,6.2-3.3,9.5-0.8l7.8,5.7c3.4,2.5,3.6,6.3,0.6,9.6c-8.3,9.4-20.5,15.4-34.8,16.3C62,241.9,38.2,222.5,36.4,194.6"></path> <path class="st0" d="M185.6,195.9c-0.6-9.6-7.6-16.2-16.7-15.6c-9.1,0.6-15.3,8.1-14.7,17.7c0.6,9.6,7.7,16.2,16.9,15.6 C180.2,212.9,186.3,205.4,185.6,195.9 M129.6,199.5c-1.4-21.9,14.5-39.2,37.9-40.7c23.4-1.5,41.4,13.6,42.8,35.5 c1.4,21.9-14.5,39.2-37.9,40.7C149,236.4,131,221.3,129.6,199.5"></path> <path class="st0" d="M339.4,179.4l2.3,36c0.3,4.2-1.9,6.8-6.1,7.1l-12,0.8c-4.2,0.3-6.7-2-6.9-6.2l-2.2-34.2 c-0.5-7.4-4.8-11.9-11.8-11.4c-6.8,0.4-11,5.5-10.5,12.9l2.2,34.2c0.3,4.2-1.9,6.8-6.1,7.1l-12,0.8c-4.2,0.3-6.7-2-6.9-6.2 l-2.2-34.2c-0.5-7.4-4.8-11.9-11.8-11.4c-6.8,0.4-11,5.5-10.5,12.9l2.2,34.2c0.3,4.2-1.9,6.8-6.1,7.1l-12,0.8 c-4.2,0.3-6.7-2-6.9-6.2l-3.9-59.8c-0.3-4.2,1.9-6.8,6.1-7.1l7.7-0.5c4.2-0.3,6.7,2,6.9,6.2l0.3,3.9c4.3-7.1,11.3-12.5,21.7-13.2 c9.7-0.6,17.7,2.5,23.2,8.5c5-6.3,12.7-10.8,22.9-11.5C324.9,148.6,338.1,160.1,339.4,179.4"></path> <path class="st0" d="M408.1,181.5c-0.6-9.4-7.4-16.2-16.7-15.6c-8.7,0.6-15.1,7.5-14.4,17.6c0.7,10.1,7.9,16.2,16.6,15.6 C402.8,198.5,408.7,190.9,408.1,181.5 M432.8,179.9c1.4,21.3-12.7,39-33.7,40.4c-6.9,0.4-13.3-1-18.7-4l1.6,24.2 c0.3,4.2-1.9,6.8-6.1,7.1l-12,0.8c-4.2,0.3-6.7-2-6.9-6.2l-5.6-87.3c-0.3-4.2,1.9-6.8,6.1-7.1l7.1-0.5c4.2-0.3,6.7,2,6.9,6.2l0.1,1 c5.9-5.8,13.6-9.7,22.7-10.3C415,142.8,431.5,158.5,432.8,179.9"></path> <path class="st0" d="M487,190.2l-0.4-5.9c-2.8-1.1-8-2.7-13.2-2.3c-7.1,0.5-11.5,4.5-11.1,9.9c0.3,5.4,5.1,8.5,12,8.1 C482.1,199.4,487.3,194.1,487,190.2 M508.2,167.9l2.4,36.6c0.3,4.3-1.9,6.8-6.2,7.1l-5.9,0.4c-4.2,0.3-6.7-2-6.9-6.2l0-0.6 c-5.7,5.9-13.6,10-22.6,10.6c-17.2,1.1-29.1-7.4-30-21.2c-1-14.9,10.7-25.5,29.5-26.8c5.6-0.4,11.4,0.6,16.7,2l-0.2-2.6 c-0.4-6.8-5.5-10.5-13.9-10c-7.1,0.5-12.6,3-15.9,5.2c-3.1,1.9-6.3,1.9-8.6-2.1l-1.8-3.2c-2.8-4.5-1.8-7.2,1.1-9.2 c6.8-4.9,17.1-8.2,25.7-8.8C489.2,138,506.7,144.6,508.2,167.9"></path> <path class="st0" d="M574.8,140.3l-2,11c-0.9,4.1-3.3,5.2-5.8,4.3c-2.4-0.6-5.2-1.1-7.6-1c-8.5,0.6-12.8,6.5-12.3,15l2.1,32.3 c0.3,4.2-1.9,6.8-6.1,7.1l-12,0.8c-4.2,0.3-6.7-2-6.9-6.2l-3.9-59.8c-0.3-4.2,1.9-6.8,6.1-7.1l7.7-0.5c4.2-0.3,6.7,2,6.9,6.2 l0.2,3.5c4.6-7.4,11.1-12.1,19.1-12.6c3.9-0.3,7.4,0.1,10.5,0.9C573.3,135,575.6,136,574.8,140.3"></path> <path class="st0" d="M644.3,199.3c-4.3,3.5-11,5.8-18.1,6.3c-14.5,0.9-28.9-6.4-30.2-26.2l-1.9-28.7l-6.4,0.4 c-4.3,0.3-6.8-2-7.1-6.2l-0.3-4.9c-0.3-4.3,1.9-6.8,6.2-7.1l6.4-0.4l-1.1-16.8c-0.3-4.2,2.1-5.9,6.2-7.1l11.4-2.8 c4.3-1.2,6.8,1.7,7.1,6.1l1.2,19l14.3-0.9c4.2-0.3,6.8,1.9,7.1,6.2l0.3,4.9c0.3,4.2-2,6.8-6.2,7.1l-14.3,0.9l1.7,26.1 c0.5,7.1,4.2,9.2,8.7,8.9c2.2-0.1,4.3-1.3,5.8-2.4c3.5-2.5,5.3-0.9,6.8,1.7l4.7,9.1C648.6,195.9,646.1,197.8,644.3,199.3"></path> <path class="st0" d="M670,156.1l28.2-1.8c-0.8-3.4-2.4-6.2-4.6-8.1c-2.8-2.4-6.2-3.7-10.4-3.4C675.5,143.3,670.5,148.4,670,156.1 M690.5,183.6c5.2-0.3,10.2-2.3,15.1-6.2c2.5-2.2,4.6-3.3,7.5-0.6l5.2,4.7c3.4,2.8,2.4,5.4,0.8,7.4c-6.1,7.4-19,12-30.4,12.7 c-23.2,1.5-41.1-13-42.6-35.6c-1.4-21.9,13.8-39,36.5-40.4c11.6-0.7,21.4,2.7,28,8.5c7.1,6.2,11.6,15.5,12.3,25.5 c0.3,5.1-0.9,7-6.2,7.4l-46,3C672.5,179.5,680.9,184.2,690.5,183.6"></path> <path class="st0" d="M502.9,278.4c-1.8,1.3-4.6,2-7.4,2c-5.9,0-11.5-3.3-11.5-11.3v-11.6h-2.6c-1.8,0-2.7-1-2.7-2.7v-2 c0-1.8,0.9-2.7,2.7-2.7h2.6v-6.8c0-1.7,1-2.3,2.7-2.7l4.7-0.8c1.8-0.4,2.7,0.9,2.7,2.6v7.7h5.8c1.7,0,2.7,0.9,2.7,2.7v2 c0,1.7-1,2.7-2.7,2.7h-5.8V268c0,2.9,1.5,3.8,3.3,3.8c0.9,0,1.8-0.4,2.4-0.8c1.5-0.9,2.2-0.2,2.7,0.9l1.6,3.8 C504.8,277.1,503.7,277.8,502.9,278.4"></path> <path class="st0" d="M537.7,252.8V277c0,1.7-0.9,2.7-2.6,2.7h-2.9c-1.7,0-2.7-1-2.7-2.7v-1.2c-1.8,2.7-4.6,4.6-8.7,4.6 c-7.3,0-12.1-4.8-12.1-11.9v-15.7c0-1.7,1-2.7,2.7-2.7h4.8c1.7,0,2.7,1,2.7,2.7V267c0,2.8,1.6,4.8,4.3,4.8c2.7,0,4.4-2,4.4-4.9 v-14.2c0-1.7,0.9-2.7,2.6-2.7h4.9C536.8,250.1,537.7,251.1,537.7,252.8"></path> <path class="st0" d="M193.7,519.6c0,12.4-10,22.4-22.4,22.4c-12.4,0-22.4-10-22.4-22.4c0-12.4,10-22.4,22.4-22.4 C183.7,497.2,193.7,507.3,193.7,519.6"></path> <path class="st0" d="M223.6,77c0,5.2-4.2,9.3-9.3,9.3c-5.2,0-9.3-4.2-9.3-9.3c0-5.2,4.2-9.3,9.3-9.3 C219.4,67.7,223.6,71.9,223.6,77"></path> <path class="st0" d="M515,93.8c0,2.1-1.7,3.7-3.7,3.7c-2.1,0-3.7-1.7-3.7-3.7c0-2.1,1.7-3.7,3.7-3.7C513.3,90.1,515,91.8,515,93.8"></path> <path class="st0" d="M537.4,530.8c0,2.1-1.7,3.7-3.7,3.7c-2.1,0-3.7-1.7-3.7-3.7c0-2.1,1.7-3.7,3.7-3.7 C535.7,527.1,537.4,528.8,537.4,530.8"></path> </g> </svg>