<?xml version="1.0" encoding="UTF-8"?> <!-- Generator: Adobe Illustrator 25.2.0, SVG Export Plug-In . SVG Version: 6.00 Build 0) --> <svg xmlns="http://www.w3.org/2000/svg" xmlns:xlink="http://www.w3.org/1999/xlink" version="1.1" id="Capa_1" x="0px" y="0px" viewBox="0 0 601.7 263.7" style="enable-background:new 0 0 601.7 263.7;" xml:space="preserve"> <style type="text/css"> .st0{fill:#FFFFFF;} .st1{fill:#EA092A;} </style> <g> <ellipse class="st0" cx="300.8" cy="131.9" rx="290.8" ry="127.5"></ellipse> <g> <path class="st1" d="M138.1,187.4c-15.2,0-29-4.1-41.3-13.2c-0.7-0.5-1.4-1-2-1.5c-1.6-1.3-1.9-2.7-0.7-4.4 c4.8-6.6,9.7-13.2,14.5-19.8c1.1-1.5,2.3-1.6,3.6-0.6c1,0.7,2,1.6,3,2.3c8.9,6.4,18.8,8.1,29.4,5.9c2-0.4,4.1-1.4,5.6-2.7 c4.1-3.5,3.7-9-0.9-11.7c-2.1-1.3-4.6-2.1-7.1-2.8c-6-1.7-11.9-3.4-18-4.8c-20.8-4.9-27.8-20.3-26.8-38.9 c1-19.5,14.9-31.6,32.8-35.1c17.6-3.4,33.2,1.2,47.3,11.9c0.7,0.5,1.3,1,1.9,1.7c1.2,1.3,1.5,2.8,0.1,4.1 c-5.2,5.4-10.4,10.7-15.7,16.1c-1.6,1.7-3.3,0.9-5-0.2c-4.2-2.6-8.7-4.2-13.5-4.4c-2.8-0.1-5.7,0-8.4,0.5c-3,0.6-5.7,2-6.2,5.5 c-0.5,3.4,0.7,6.2,3.6,8c1.8,1.1,3.8,1.9,5.8,2.5c6.7,1.9,13.4,3.5,20,5.3c3,0.8,5.9,1.9,8.7,3.2c7.2,3.2,12.2,8.7,14.7,16.1 c5.2,15.5,3.2,32.5-9.4,44.2c-7.1,6.5-15.5,10.2-24.9,11.7C145.7,186.9,141.9,187,138.1,187.4"></path> <path class="st1" d="M415,159.4c-0.2,1.4-0.3,2.3-0.6,3.2c-1.8,6.4-3.6,12.8-5.5,19.1c-1,3.5-1.3,3.9-5.1,3.6 c-4.5-0.3-9-0.6-13.4-1.6c-12.8-2.9-19.8-11.3-21.8-24c-0.6-3.6-0.8-7.3-0.8-11c-0.1-9.3,0-18.6,0-28v-4.9 c-3.5-0.2-6.7-0.3-10.4-0.5c1.9-7.7,3.7-14.9,5.4-22.1c1.8-0.2,3.2-0.3,5-0.5c0-4.4,0-8.8,0-13.1c0-4.5,0.1-4.6,4.1-6.3 c5.9-2.4,11.8-4.8,17.7-7.1c1.1-0.5,2.3-0.8,4.1-1.3c0.2,1.8,0.6,3.3,0.6,4.7c0.1,6.1,0,12.1,0,18.2v5.1c3.9,0,7.4,0,10.9,0 c4.1,0,4.5,0.5,4.6,4.7c0,4.7,0.1,9.3,0,14c-0.1,3.4-0.5,3.8-4,3.9c-3.4,0.1-6.8,0.1-10.2,0.1c-0.3,0-0.5,0.2-1,0.4 c-0.1,1.1-0.2,2.4-0.2,3.6c0,8.8,0,17.5,0,26.3c0,1.1,0.1,2.3,0.2,3.4c0.4,4.6,2.9,7.7,7.3,8.8c2.8,0.7,5.8,0.7,8.8,1 C412,159.5,413.3,159.4,415,159.4"></path> <path class="st1" d="M271.1,95.9H282c3,0,5.9-0.1,8.9,0c3,0.1,3.7,0.7,3.9,3.8c0.1,1.8,0,3.7,0.1,5.5c0,0.8,0.3,1.5,0.9,2.4 c2.9-5.1,5.4-10.5,11-12.9c2.6-1.1,5.3-1.9,8.1-2.3c2.4-0.4,5-0.1,8-0.1c-0.2,1.8-0.2,3.2-0.5,4.5c-1.6,6-3.3,12-4.9,18 c-0.6,2.3-1.6,3.9-4.3,3.9c-0.4,0-0.8,0.2-1.2,0.2c-8.4,1-13.5,4.9-13.8,16.1c-0.4,13.8-0.1,27.7-0.1,41.5c0,0.6,0,1.1,0,1.7 c0,6.5-0.8,7.3-7.3,7.3c-4.8,0-9.6,0-14.4,0c-3.9-0.1-4.9-1.2-5.1-5.1c0-0.7,0-1.4,0-2.1v-77.1V95.9z"></path> <path class="st1" d="M353.4,141v36.4c0,1,0,2,0,3c-0.2,3.5-1.5,4.9-4.9,5c-5.6,0.1-11.3,0.1-16.9,0c-3.3-0.1-4.8-1.6-5.1-4.9 c-0.1-1,0-2,0-3c0-24.6,0-49.1,0-73.7c0-1.1-0.1-2.3,0-3.4c0.3-2.9,1.7-4.5,4.6-4.6c5.9-0.1,11.9-0.1,17.8,0 c2.9,0.1,4.3,1.6,4.5,4.5c0.1,1.1,0.1,2.3,0.1,3.4V141z"></path> <path class="st1" d="M339.8,90.7c-7.5,0.4-14.2-5.9-14.3-14.1c-0.1-7.8,6.4-14.3,14.2-14.3c7.7,0,13.9,6.2,14,14 C353.9,84.4,347.9,90.6,339.8,90.7"></path> <path class="st1" d="M505.9,93.5c0-3.7-2.7-6.7-6.1-6.7c-3.7-0.1-6.5,3-6.4,6.9c0.1,3.7,2.8,6.6,6.4,6.5 C503.1,100.2,505.9,97.2,505.9,93.5 M499.5,102.2c-4.8-0.1-8.5-3.9-8.5-8.7c0-5,4-8.8,9-8.6c4.8,0.2,8.4,4,8.3,8.9 C508.1,98.5,504.3,102.3,499.5,102.2"></path> <path class="st1" d="M229.6,166.2c-1,0.1-2,0.2-3.9,0.3c-1.2-0.2-3.3-0.4-5.2-1.2c-5.4-2-7.9-6.6-7.3-12.4 c0.5-4.9,4.4-8.9,9.7-9.8c2.2-0.3,4.5-0.4,6.7-0.1c6.2,0.7,10.4,5.3,10.4,11.2C240.1,160.4,235.9,165.2,229.6,166.2 M264.7,120.7 c-0.3-14.7-7.9-23.8-22-27.3c-9.2-2.3-18.4-2.5-27.7-0.5c-2.9,0.6-5.8,1.3-8.6,2.1c-2.1,0.6-3.2,1.9-3.1,4.4 c0.2,3.2,0,6.5,0.2,9.7c0.2,3.9,2.4,6,6.2,5.9c1.7,0,3.4-0.3,5-0.5c5.5-0.5,11-0.9,16.4,0.4c5.6,1.4,7.9,3.8,8.7,9.5 c0.3,2.1,1.4,4.4-0.9,6.6c-1.4-0.6-2.7-1.3-4.1-1.9c-7.4-3.6-15-4.7-23-2.8c-11.5,2.8-19.6,9.5-22.4,21.2 c-1.1,4.5-0.9,9.6-0.4,14.3c1.4,12,9.2,21.5,20.2,24c4.5,1,9.2,1.3,13.8,1c6.4-0.3,12.1-2.6,16.4-7.7c0.4-0.5,1-0.8,1.6-1.2 c0.3,0.4,0.6,0.6,0.6,0.9c0.1,1,0.2,2,0.3,2.9c0.3,3.4,0.5,3.8,4.1,3.9c4,0.2,7.9,0.2,11.9,0.3c5.1,0.1,7-1.6,7-6.8 C264.8,159.7,265,140.2,264.7,120.7"></path> <path class="st1" d="M455.8,142.7c-1.1,0.1-2.1,0.1-3.1,0.3c-5.9,0.8-10.1,5-10.5,10.4c-0.4,6,2.8,10.7,8.6,12.4 c3.6,1,7.2,1,10.8-0.4c5.2-2.1,7.9-6.5,7.5-11.9c-0.4-5.2-4.2-9.3-9.6-10.3C458.2,142.9,456.9,142.8,455.8,142.7 M469.7,177.9 c-3,3.5-6.5,6.3-10.9,7.6c-5.4,1.7-10.8,2.1-16.3,1.2c-14.5-2.3-23.6-12.3-24.6-27c-0.3-3.9-0.4-8,0.5-11.8 c2.8-11.9,10.9-18.8,22.5-21.6c8-2,15.7-0.8,23,2.7c1.4,0.7,2.8,1.3,4.5,2.1c0.4-1.2,1-2.1,1-2.9c-0.2-2.4-0.5-4.8-1.2-7.1 c-1-3.6-3.9-5.4-7.4-6.3c-5.7-1.4-11.5-1-17.3-0.4c-1.8,0.2-3.7,0.5-5.5,0.4c-2.9-0.1-5-1.7-5.3-4.5c-0.4-4.1-0.3-8.2-0.3-12.3 c0-2.1,1.7-2.9,3.3-3.3c5.5-1.2,11-2.5,16.6-3.2c6.5-0.7,13,0,19.3,1.6c14.2,3.5,21.8,13,22.1,27.7c0.2,8.9,0.1,17.8,0.1,26.7 c0,9.9,0,19.8,0,29.7c0,1.3,0,2.6-0.2,3.8c-0.5,3.1-2,4.6-5.1,4.6c-4.9,0.1-9.9-0.1-14.8-0.2c-1.9,0-2.8-1-2.9-2.9 c-0.1-1.5-0.2-3-0.3-4.5C470.3,178.1,470,178,469.7,177.9"></path> <path class="st1" d="M500,90.4h-1.6v2.4h1.6c0.4,0,0.8,0,1.1-0.1c0.3-0.1,0.5-0.2,0.7-0.4c0.1-0.2,0.2-0.4,0.2-0.7 c0-0.2-0.1-0.5-0.2-0.6c-0.1-0.2-0.3-0.3-0.5-0.4C501,90.4,500.6,90.4,500,90.4 M499,94.1h-0.6v2.8c0,0.4-0.1,0.6-0.2,0.8 c-0.2,0.2-0.4,0.3-0.6,0.3c-0.3,0-0.5-0.1-0.7-0.3c-0.2-0.2-0.2-0.5-0.2-0.8v-6.7c0-0.4,0.1-0.7,0.3-0.8c0.2-0.2,0.4-0.3,0.8-0.3 h2.9c0.4,0,0.7,0,1,0.1c0.3,0,0.5,0.1,0.8,0.2c0.3,0.1,0.5,0.3,0.7,0.5c0.2,0.2,0.4,0.5,0.5,0.8c0.1,0.3,0.2,0.6,0.2,0.9 c0,0.7-0.2,1.2-0.6,1.6c-0.4,0.4-0.9,0.7-1.7,0.8c0.3,0.2,0.6,0.4,0.9,0.7c0.3,0.3,0.5,0.7,0.8,1c0.2,0.4,0.4,0.7,0.5,1 c0.1,0.3,0.2,0.5,0.2,0.6c0,0.1,0,0.2-0.1,0.3c-0.1,0.1-0.2,0.2-0.3,0.3c-0.1,0.1-0.3,0.1-0.4,0.1c-0.2,0-0.4,0-0.5-0.1 c-0.1-0.1-0.3-0.2-0.3-0.4c-0.1-0.1-0.2-0.4-0.4-0.6l-0.7-1.2c-0.3-0.4-0.5-0.8-0.7-1c-0.2-0.2-0.4-0.4-0.6-0.5 C499.5,94.1,499.3,94.1,499,94.1"></path> </g> </g> </svg> 